<svg xmlns="http://www.w3.org/2000/svg" width="1em" height="1em" viewBox="0 0 32 32"><path fill="currentColor" d="M29.524 14.802L17.202 2.524a1.76 1.76 0 0 0-2.504 0L12.193 5.02L15.4 8.214c.801-.3 1.603 0 2.204.499c.6.599.801 1.398.5 2.196l3.106 3.095c.802-.3 1.603 0 2.204.499c.802.798.802 2.196 0 2.994c-.801.799-2.204.799-3.005 0a2.17 2.17 0 0 1-.501-2.296l-2.905-2.894v7.586c1.102.5 1.502 1.797 1.001 2.895c-.1.2-.2.4-.4.599c-.802.799-2.204.799-3.006 0s-.801-2.196 0-2.995c.2-.2.401-.4.702-.499v-7.686c-.3-.1-.501-.3-.702-.5a2.17 2.17 0 0 1-.5-2.295L10.89 6.218l-8.415 8.484c-.701.7-.701 1.797 0 2.596l12.222 12.178a1.76 1.76 0 0 0 2.504 0l12.222-12.178c.701-.7.701-1.797 0-2.596"/></svg>